<svg xmlns="http://www.w3.org/2000/svg" version="1.1" xmlns:xlink="http://www.w3.org/1999/xlink" xmlns:svgjs="http://svgjs.com/svgjs" width="1440" height="560" preserveAspectRatio="none" viewBox="0 0 1440 560">
    <g mask="url(&quot;#SvgjsMask1002&quot;)" fill="none">
        <rect width="1440" height="560" x="0" y="0" fill="url(#SvgjsLinearGradient1003)"></rect>
        <path d="M1440 0L1123.6100000000001 0L1440 245.67z" fill="rgba(255, 255, 255, .1)"></path>
        <path d="M1123.6100000000001 0L1440 245.67L1440 277.86L626.69 0z" fill="rgba(255, 255, 255, .075)"></path>
        <path d="M626.69 0L1440 277.86L1440 282.14L418.7900000000001 0z" fill="rgba(255, 255, 255, .05)"></path>
        <path d="M418.7900000000001 0L1440 282.14L1440 293.83L196.96000000000006 0z" fill="rgba(255, 255, 255, .025)"></path>
        <path d="M0 560L269.81 560L0 410.59000000000003z" fill="rgba(0, 0, 0, .1)"></path>
        <path d="M0 410.59000000000003L269.81 560L832.0899999999999 560L0 386.95000000000005z" fill="rgba(0, 0, 0, .075)"></path>
        <path d="M0 386.95L832.0899999999999 560L1088.11 560L0 362.32z" fill="rgba(0, 0, 0, .05)"></path>
        <path d="M0 362.32L1088.11 560L1133.2099999999998 560L0 177.75z" fill="rgba(0, 0, 0, .025)"></path>
    </g>
    <defs>
        <mask id="SvgjsMask1002">
            <rect width="1440" height="560" fill="#ffffff"></rect>
        </mask>
        <linearGradient x1="15.28%" y1="-39.29%" x2="84.72%" y2="139.29%" gradientUnits="userSpaceOnUse" id="SvgjsLinearGradient1003">
            <stop stop-color="#0e2a47" offset="0"></stop>
            <stop stop-color="#00459e" offset="1"></stop>
        </linearGradient>
    </defs>
</svg>